<?xml version="1.0" standalone="no"?>
<!DOCTYPE svg PUBLIC "-//W3C//DTD SVG 20010904//EN"
 "http://www.w3.org/TR/2001/REC-SVG-20010904/DTD/svg10.dtd">
<svg version="1.0" xmlns="http://www.w3.org/2000/svg"
 width="640.000000pt" height="640.000000pt" viewBox="0 0 640.000000 640.000000"
 preserveAspectRatio="xMidYMid meet">
<metadata>
Created by potrace 1.14, written by Peter Selinger 2001-2017
</metadata>
<g transform="translate(0.000000,640.000000) scale(0.100000,-0.100000)"
fill="#000000" stroke="none">
<path d="M2317 5918 c-20 -10 -74 -67 -132 -138 -20 -25 -81 -90 -135 -146
-79 -80 -104 -100 -122 -96 -72 12 -323 3 -349 -14 -17 -10 -142 79 -239 172
-110 106 -144 131 -192 146 -31 9 -41 8 -63 -6 -26 -17 -28 -25 -25 -86 3 -72
76 -306 139 -443 20 -45 22 -57 15 -160 -9 -125 -10 -233 -3 -320 l4 -59 -75
-19 c-69 -18 -209 -81 -254 -114 -31 -24 -10 -29 26 -7 96 58 207 104 281 116
28 5 37 3 37 -9 0 -12 -54 -35 -83 -35 -27 0 -210 -93 -215 -109 -2 -7 31 6
74 28 91 45 218 86 235 75 14 -8 -15 -34 -39 -34 -27 0 -157 -68 -200 -105
-55 -48 -55 -67 1 -22 23 19 62 46 87 60 55 31 158 68 164 58 3 -3 -23 -21
-57 -39 -70 -36 -146 -97 -135 -107 4 -4 28 11 55 33 26 22 71 51 98 65 l51
25 28 -44 c37 -58 97 -109 174 -145 58 -28 61 -31 50 -52 -6 -12 -10 -24 -9
-27 2 -5 -8 -86 -15 -125 -9 -45 -5 -256 5 -340 20 -155 86 -392 141 -510 48
-103 130 -209 229 -298 l43 -38 5 -112 c10 -204 8 -229 -14 -287 -12 -30 -24
-71 -27 -90 -7 -38 -7 -235 -1 -367 l4 -83 -27 -1 c-75 -2 -199 -37 -224 -63
-46 -49 -68 -175 -38 -211 20 -25 66 -45 99 -45 17 0 49 -9 71 -21 36 -19 50
-20 137 -14 54 4 104 8 113 10 8 1 36 5 61 9 55 8 75 27 92 86 12 42 14 43 57
47 175 13 193 25 183 123 -8 78 -8 130 -1 170 4 20 8 82 9 138 3 106 14 149
18 64 2 -58 6 -91 14 -117 3 -11 8 -36 11 -55 8 -52 44 -166 73 -227 14 -30
24 -55 22 -58 -3 -2 -25 -6 -49 -9 -51 -7 -60 -8 -153 -30 -120 -28 -164 -61
-216 -163 -49 -97 -33 -160 49 -188 36 -13 81 -15 232 -11 103 2 191 6 195 9
4 3 32 8 62 11 29 4 57 8 60 11 4 2 39 7 77 11 38 3 76 8 85 9 9 2 52 6 95 10
43 4 81 9 84 10 3 2 30 -1 60 -6 30 -5 70 -11 87 -14 108 -17 152 -20 283 -20
173 0 225 7 385 49 79 20 235 99 256 129 5 7 102 -31 284 -113 22 -10 121 -52
220 -95 283 -121 310 -136 335 -183 10 -20 8 -32 -14 -75 -60 -122 -244 -265
-528 -407 -227 -113 -283 -157 -275 -212 5 -29 61 -68 101 -69 61 -3 122 1
176 12 77 15 293 78 304 90 6 5 16 9 23 9 7 0 32 9 56 19 23 11 72 33 109 50
115 51 270 162 371 264 93 95 142 179 153 259 3 24 7 45 7 48 1 3 -2 25 -6 50
-17 99 -86 174 -257 276 -63 38 -119 71 -125 73 -5 2 -38 22 -73 43 -34 21
-64 38 -66 38 -3 0 -46 24 -98 53 -108 61 -302 157 -317 157 -17 0 -79 59
-102 97 -23 37 -22 55 6 205 7 32 17 184 17 248 0 72 -8 167 -22 250 -5 30
-11 71 -14 90 -3 19 -10 62 -16 95 -6 33 -13 76 -15 95 -3 19 -10 55 -15 80
-5 25 -11 61 -14 80 -4 19 -8 45 -10 56 -5 25 -14 78 -22 132 -16 108 -27 163
-45 221 -95 302 -305 521 -663 691 -106 51 -300 123 -360 134 -12 2 -39 9 -61
14 -22 6 -53 14 -70 17 -72 13 -204 34 -249 40 -76 9 -113 30 -190 104 -39 38
-84 82 -101 96 -86 78 -114 108 -109 117 12 19 19 82 18 158 0 56 -7 91 -27
140 -24 60 -26 81 -31 260 -8 269 -20 380 -47 432 -14 26 -42 38 -62 26z"/>
</g>
</svg>
